<svg 
 xmlns="http://www.w3.org/2000/svg"
 xmlns:xlink="http://www.w3.org/1999/xlink"
 width="93px" height="121px">
<path fill-rule="evenodd"  fill="rgb(0, 0, 0, 0.1)"
 d="M89.104,48.605 C89.470,51.475 93.439,56.912 91.699,59.140 C89.389,61.771 85.820,63.817 84.478,67.081 C82.629,75.962 86.571,76.803 77.538,79.307 C80.907,89.874 84.222,100.272 87.569,110.768 C67.176,109.747 72.950,107.667 56.992,120.661 C56.914,120.661 56.836,120.661 56.758,120.661 C54.206,111.602 51.109,102.804 48.277,93.801 C47.025,95.354 45.797,95.004 44.583,93.911 C41.682,102.816 38.806,111.688 36.131,120.661 C19.558,108.040 26.742,109.524 5.306,110.804 C8.726,100.078 11.950,89.969 15.357,79.282 C13.464,78.208 10.163,78.495 9.385,76.421 C8.718,72.865 9.405,68.653 7.629,65.473 C6.072,63.080 0.221,59.902 0.714,57.213 C4.581,48.049 4.449,47.200 0.670,38.102 C0.400,37.385 0.546,36.969 1.058,36.474 C3.376,33.782 6.938,31.703 8.400,28.457 C9.252,25.835 8.250,19.079 10.433,17.837 C20.040,15.167 20.725,14.382 25.475,5.737 C25.807,5.185 26.146,5.001 26.785,5.091 C37.452,6.925 37.537,6.495 46.210,0.339 C49.871,1.488 52.789,5.493 56.578,6.251 C59.348,6.457 65.735,4.036 67.484,5.837 C72.301,14.596 72.745,15.049 82.354,17.786 C83.103,18.032 83.459,18.365 83.528,19.240 C84.155,22.723 83.496,26.855 85.251,29.955 C97.200,41.219 90.493,35.384 89.104,48.605 ZM54.905,91.325 C56.778,97.174 58.599,102.875 60.485,108.745 C67.699,102.398 68.201,102.270 77.757,103.176 C75.630,96.504 73.550,89.983 71.394,83.223 C68.603,86.680 68.610,91.866 63.203,89.959 C60.929,90.259 53.893,87.077 54.905,91.325 ZM15.130,103.189 C24.912,102.304 24.983,102.275 32.363,108.704 C34.436,102.781 36.184,96.776 38.141,90.814 C38.753,87.384 30.008,90.297 28.008,90.219 C24.156,90.807 23.752,85.586 21.490,83.227 C19.335,89.988 17.256,96.514 15.130,103.189 ZM83.720,38.346 C77.542,32.985 77.496,32.160 76.906,24.182 C76.855,23.804 76.452,23.297 76.096,23.165 C68.658,21.002 67.395,20.210 63.787,13.282 C62.003,11.664 57.612,13.780 55.149,13.514 C52.261,13.244 49.997,10.712 47.504,9.359 C45.010,8.067 41.899,12.351 39.430,13.183 C36.624,14.103 33.406,12.776 30.485,12.661 C28.034,12.934 26.956,17.848 25.197,19.611 C23.056,22.403 17.610,21.340 15.923,24.229 C15.609,31.962 15.006,33.359 9.135,38.388 C8.631,38.866 8.556,39.279 8.794,39.912 C11.940,47.202 11.865,48.342 8.771,55.593 C8.547,56.190 8.625,56.570 9.095,57.019 C14.821,61.900 15.707,63.649 15.918,71.166 C15.978,71.893 16.269,72.149 16.912,72.356 C23.891,74.180 25.684,75.390 28.917,81.893 C30.572,84.048 35.480,81.624 38.301,81.819 C41.213,82.308 44.638,87.259 47.401,86.154 C53.144,81.825 55.092,81.320 62.132,82.759 C62.969,82.879 63.478,82.739 63.932,81.948 C67.409,75.181 68.693,74.400 75.918,72.395 C76.583,72.176 76.914,71.888 76.974,71.114 C77.169,63.603 78.098,61.910 83.753,57.068 C85.000,54.941 82.091,51.335 81.684,48.940 C80.434,45.416 85.267,41.563 83.720,38.346 ZM46.481,75.170 C10.684,75.031 10.573,20.518 46.408,20.287 C82.225,20.431 82.309,74.898 46.481,75.170 ZM46.801,27.346 C19.980,27.121 19.567,67.730 46.319,68.112 C72.786,68.192 73.236,27.857 46.801,27.346 Z"/>
</svg>