<?xml version="1.0" encoding="UTF-8"?>
<svg id="Camada_2" xmlns="http://www.w3.org/2000/svg" viewBox="0 0 37.7 37.7">
  <defs>
    <style>
      .cls-1 {
        fill: #fff;
      }

      .cls-2 {
        fill: #2e528e;
        fill-rule: evenodd;
      }
    </style>
  </defs>
  <g id="Camada_1-2" data-name="Camada_1">
    <circle class="cls-1" cx="18.85" cy="18.85" r="18.7"/>
    <path class="cls-2" d="M37.66,19.62c-.04,1.35-.24,2.68-.58,3.98-2.04,7.83-8.87,13.46-16.81,14.02-.29.02-.57.05-.86.07h-1.13c-.08-.01-.16-.03-.24-.04-1.24-.04-2.45-.22-3.66-.51-6.13-1.47-11.21-6.07-13.29-12.01-.56-1.59-.91-3.22-1.02-4.89-.02-.29-.05-.58-.07-.88v-1.06c.01-.08.03-.16.04-.24.04-1.31.23-2.61.56-3.88C2.15,8.11,6.66,3.17,12.58,1.08c1.57-.55,3.18-.9,4.84-1.01.28-.02.57-.05.86-.07h1.13c.07.01.15.03.22.03,1.24.04,2.47.22,3.67.51,6.13,1.48,11.21,6.07,13.29,12.01.56,1.59.91,3.22,1.02,4.89.02.29.05.58.07.88v1.06c-.01.08-.03.16-.04.24ZM18.8,1.22C9.11,1.25,1.22,9.13,1.23,18.84c-.03,9.72,7.89,17.6,17.55,17.64,9.78.04,17.72-7.92,17.7-17.68-.02-9.69-7.93-17.61-17.68-17.58ZM22.85,15.65c-.38.05-.76.1-1.16.15-.08-.42-.34-.69-.73-.86-.03-.01-.07-.09-.06-.12.08-.35.17-.7.26-1.05.91.17,1.7,1.12,1.68,1.88ZM30.64,27.61c-2.91-.82-5.83-1.63-8.74-2.45-.36-.1-.54-.31-.53-.62,0-.38.35-.67.72-.57,1.06.28,2.11.58,3.17.88,1.9.53,3.8,1.06,5.69,1.59.43.12.86-.02,1.11-.35.26-.35.27-.78.02-1.19-2.79-4.58-5.57-9.16-8.36-13.74-1.29-2.12-2.58-4.24-3.87-6.36-.43-.71-1.49-.72-1.93,0-4.12,6.65-8.23,13.31-12.34,19.96-.17.28-.26.58-.2.91.11.61.68.97,1.3.81,1.71-.45,3.42-.91,5.14-1.36,1.09-.29,2.18-.58,3.27-.87.42-.11.68-.39.75-.82.07-.43-.07-.78-.44-1.04-1.53-1.05-2.45-2.49-2.69-4.32-.46-3.52,1.94-6.41,5-6.96,3.42-.62,6.67,1.59,7.28,5.02.37,2.07-.15,3.93-1.64,5.47-.57.58-1.29.93-2.01,1.29-.15.08-.31.15-.46.21-.58.24-.85.66-.85,1.29,0,1.72-.02,3.44.01,5.15.01.61-.52,1.33-1.24,1.47-.8.15-1.56-.3-1.82-1.07-.03-.08-.04-.17-.04-.26,0-1.37,0-2.74,0-4.11,0-.38.21-.64.53-.68.38-.04.68.24.68.64,0,.42,0,2.64,0,3.95,0,.17.07.27.21.33.15.06.29.03.38-.09.05-.07.09-.17.09-.25,0-.9,0-1.8,0-2.7,0-.79,0-1.58,0-2.36-.02-1.15.51-1.93,1.55-2.4.38-.17.75-.37,1.12-.56,1.16-.58,1.84-1.55,2.19-2.78.79-2.76-.85-5.61-3.63-6.3-2.84-.71-5.67,1.11-6.13,4-.33,2.11.4,3.82,2.17,5.06.75.52,1.05,1.26.93,2.14-.13.93-.67,1.58-1.59,1.83-2.8.76-5.61,1.5-8.42,2.25-1.31.35-2.55-.4-2.82-1.71-.13-.63,0-1.23.34-1.77,4.14-6.7,8.28-13.4,12.43-20.1.38-.61.98-.91,1.68-.98.75-.08,1.41.17,1.95.71.09.09.17.19.24.31,4.1,6.73,8.2,13.46,12.3,20.2.82,1.35.09,3.03-1.45,3.35-.34.07-.69.05-1.03-.05Z"/>
  </g>
</svg>