<svg xmlns="http://www.w3.org/2000/svg" xmlns:xlink="http://www.w3.org/1999/xlink"
                                width="38px" height="38px">
                                <path fill-rule="evenodd" fill="rgb(46, 82, 142)"
                                    d="M37.814,19.771 C37.772,21.121 37.572,22.448 37.231,23.753 C35.186,31.581 28.364,37.209 20.422,37.778 C20.136,37.798 19.850,37.826 19.565,37.850 C19.188,37.850 18.812,37.850 18.435,37.850 C18.355,37.838 18.275,37.817 18.194,37.814 C16.957,37.773 15.739,37.594 14.538,37.305 C8.410,35.830 3.327,31.235 1.245,25.299 C0.689,23.712 0.338,22.083 0.221,20.405 C0.201,20.113 0.174,19.821 0.150,19.529 C0.150,19.176 0.150,18.824 0.150,18.471 C0.162,18.390 0.183,18.310 0.186,18.229 C0.230,16.915 0.421,15.623 0.745,14.350 C2.297,8.258 6.806,3.324 12.735,1.233 C14.304,0.680 15.918,0.338 17.579,0.222 C17.864,0.202 18.150,0.174 18.435,0.150 C18.812,0.150 19.188,0.150 19.565,0.150 C19.639,0.162 19.713,0.183 19.788,0.185 C21.031,0.225 22.254,0.405 23.462,0.695 C29.590,2.170 34.673,6.765 36.755,12.701 C37.311,14.288 37.662,15.917 37.779,17.595 C37.799,17.887 37.826,18.179 37.850,18.471 C37.850,18.824 37.850,19.176 37.850,19.529 C37.838,19.610 37.817,19.690 37.814,19.771 ZM18.947,1.370 C9.257,1.396 1.370,9.285 1.376,18.992 C1.350,28.714 9.264,36.593 18.930,36.630 C28.706,36.666 36.654,28.707 36.630,18.955 C36.606,9.263 28.698,1.345 18.947,1.370 ZM23.005,15.800 C22.626,15.850 22.245,15.900 21.848,15.952 C21.768,15.531 21.508,15.261 21.123,15.095 C21.090,15.081 21.055,15.008 21.063,14.973 C21.144,14.620 21.234,14.270 21.321,13.919 C22.229,14.087 23.017,15.041 23.005,15.800 ZM30.793,27.757 C27.878,26.941 24.963,26.126 22.048,25.311 C21.684,25.209 21.508,25.006 21.513,24.689 C21.518,24.310 21.867,24.020 22.233,24.119 C23.292,24.404 24.347,24.703 25.404,24.999 C27.302,25.529 29.200,26.061 31.098,26.592 C31.524,26.711 31.956,26.574 32.205,26.243 C32.467,25.894 32.478,25.464 32.230,25.056 C29.443,20.477 26.656,15.898 23.868,11.319 C22.578,9.201 21.288,7.082 19.998,4.964 C19.563,4.251 18.508,4.249 18.068,4.960 C13.953,11.614 9.839,18.268 5.724,24.922 C5.551,25.202 5.462,25.503 5.520,25.830 C5.629,26.445 6.196,26.801 6.817,26.638 C8.530,26.187 10.241,25.729 11.953,25.274 C13.042,24.985 14.131,24.698 15.218,24.405 C15.638,24.292 15.900,24.015 15.972,23.587 C16.045,23.156 15.899,22.802 15.530,22.551 C13.998,21.505 13.083,20.063 12.841,18.227 C12.377,14.705 14.781,11.818 17.841,11.268 C21.264,10.652 24.509,12.853 25.118,16.288 C25.486,18.362 24.969,20.219 23.479,21.753 C22.914,22.334 22.186,22.685 21.471,23.046 C21.319,23.123 21.165,23.194 21.007,23.258 C20.426,23.493 20.159,23.922 20.161,24.547 C20.168,26.265 20.142,27.983 20.175,29.701 C20.187,30.316 19.650,31.033 18.935,31.166 C18.133,31.316 17.373,30.866 17.117,30.095 C17.089,30.013 17.074,29.923 17.074,29.837 C17.072,28.466 17.071,27.095 17.073,25.724 C17.073,25.348 17.286,25.081 17.606,25.046 C17.984,25.005 18.284,25.283 18.284,25.682 C18.286,26.1000 18.287,28.318 18.282,29.635 C18.282,29.802 18.350,29.902 18.495,29.961 C18.642,30.021 18.782,29.991 18.879,29.875 C18.933,29.810 18.964,29.707 18.964,29.621 C18.970,28.721 18.968,27.821 18.968,26.920 C18.968,26.132 18.977,25.344 18.966,24.556 C18.949,23.409 19.477,22.625 20.511,22.156 C20.890,21.984 21.258,21.786 21.631,21.599 C22.794,21.015 23.474,20.049 23.826,18.823 C24.619,16.063 22.980,13.214 20.200,12.520 C17.364,11.813 14.526,13.631 14.069,16.518 C13.736,18.627 14.467,20.338 16.241,21.576 C16.987,22.096 17.294,22.840 17.171,23.720 C17.041,24.651 16.498,25.301 15.582,25.551 C12.781,26.313 9.971,27.048 7.166,27.797 C5.860,28.146 4.617,27.402 4.344,26.086 C4.213,25.453 4.346,24.857 4.683,24.312 C8.824,17.612 12.965,10.912 17.113,4.216 C17.491,3.605 18.093,3.309 18.790,3.237 C19.545,3.160 20.203,3.408 20.740,3.951 C20.830,4.042 20.911,4.146 20.978,4.256 C25.078,10.987 29.177,17.719 33.275,24.452 C34.098,25.803 33.368,27.483 31.821,27.803 C31.476,27.875 31.133,27.852 30.793,27.757 Z" />
                            </svg>