<svg width="57" height="116" viewBox="0 0 57 116" fill="none" xmlns="http://www.w3.org/2000/svg">
<path fill-rule="evenodd" clip-rule="evenodd" d="M34.3028 0.0961914C35.1593 0.0961914 36.4012 0.0961914 37.2577 0.0961914C37.1151 0.14079 36.9721 0.988168 36.8294 1.43416C32.6711 5.98101 29.4327 11.1429 22.6972 13.0299C22.8398 12.7324 22.9829 12.4354 23.1255 12.1379C24.5091 4.73982 28.7154 2.7302 34.3028 0.0961914ZM18.843 5.44805C22.0253 9.36249 19.9102 15.7589 18.4147 19.7197C21.7679 16.6727 23.6184 14.1988 29.9775 15.2598C30.1201 15.3044 30.2631 16.1518 30.4057 16.5978C30.2631 16.7463 30.1201 16.8952 29.9775 17.0438C26.2029 19.6679 23.7661 22.3987 17.1728 21.1022C13.5417 16.191 15.4478 10.0627 18.843 5.44805ZM7.70849 21.1022C11.7088 24.7968 12.3798 29.9801 11.5627 37.1132C14.2093 32.7024 15.2834 30.0323 20.5988 28.6395C21.4553 28.788 22.6972 28.9369 23.1683 29.0854C23.2681 29.8289 22.9829 30.5724 22.6972 31.3154C20.2489 34.3115 15.6637 41.6775 9.46431 38.0052C4.57627 34.8556 6.23874 27.4054 7.70849 21.1022ZM1.28475 39.8338C7.62541 43.3482 7.40872 49.0635 9.46431 56.2907C9.80777 48.9052 13.0222 44.2606 19.314 43.4017C19.314 43.9516 19.314 44.1005 19.314 43.8477C18.395 51.1699 14.877 58.2196 7.70849 57.6287C2.24189 53.9943 0.492487 49.154 1.28475 39.8338ZM19.314 58.0747C22.6728 65.2823 18.2126 73.0171 14.5605 76.3602C4.98268 76.6176 0.760143 69.4492 0 60.7506C0.142607 60.7506 0.285642 60.7506 0.428249 60.7506C8.06779 63.0225 10.1945 68.5572 13.7468 74.1749C11.8638 65.8456 14.5712 61.6752 19.314 58.0747ZM24.0248 71.053C29.2422 77.0533 28.2439 88.7025 23.1255 92.4604C13.7648 94.1855 7.61684 88.3591 5.13899 80.8647C5.13899 81.1176 5.13899 80.9686 5.13899 80.4187C14.2997 80.7942 17.2242 84.8777 22.269 88.4465C22.8398 89.1454 23.4111 89.4424 23.5965 89.3385C18.6914 84.7087 19.717 75.9834 24.0248 71.053ZM32.547 82.6041C37.9536 85.7884 40.9235 94.0624 39.8272 102.674C31.4541 109.959 22.8244 105.399 15.8452 99.1502C15.8452 99.2542 15.8452 98.9571 15.8452 98.6596C24.4847 95.9409 37.7288 101.336 37.7288 101.336C32.1761 97.6151 28.2045 90.6492 32.547 82.6041ZM43.2532 89.3385C50.3698 92.3565 55.5855 98.4598 57 106.687C53.9924 116.075 40.452 119.248 31.305 112.084C31.8331 112.337 31.9761 112.188 31.7333 111.638C38.4491 107.505 45.8445 108.83 54.8159 105.394C46.2081 105.379 41.2905 98.603 43.2532 89.3385Z" fill="white"/>
</svg>
